<mxfile host="app.diagrams.net" modified="2023-06-08T09:31:00.761Z" agent="Mozilla/5.0 (Macintosh; Intel Mac OS X 10_15_7) AppleWebKit/537.36 (KHTML, like Gecko) Chrome/113.0.0.0 Safari/537.36" etag="jYs7uROGfR1e1PdbYXZT" version="21.3.7" type="github">
  <diagram name="Page-1" id="omFpjdPbciegoG3flBwK">
    <mxGraphModel dx="954" dy="566" grid="1" gridSize="10" guides="1" tooltips="1" connect="1" arrows="1" fold="1" page="1" pageScale="1" pageWidth="827" pageHeight="1169" math="0" shadow="0">
      <root>
        <mxCell id="0" />
        <mxCell id="1" parent="0" />
        <mxCell id="LK9-OLBdX8FcBac2PXQw-5" value="" style="rounded=1;whiteSpace=wrap;html=1;absoluteArcSize=1;arcSize=14;strokeWidth=2;" parent="1" vertex="1">
          <mxGeometry x="260" y="230" width="190" height="190" as="geometry" />
        </mxCell>
        <mxCell id="LK9-OLBdX8FcBac2PXQw-6" value="fournisseur de certificat&amp;nbsp;" style="rounded=1;whiteSpace=wrap;html=1;absoluteArcSize=1;arcSize=14;strokeWidth=2;" parent="1" vertex="1">
          <mxGeometry x="30" y="40" width="180" height="60" as="geometry" />
        </mxCell>
        <mxCell id="LK9-OLBdX8FcBac2PXQw-7" value="app client&amp;nbsp;" style="strokeWidth=2;html=1;shape=mxgraph.flowchart.start_1;whiteSpace=wrap;" parent="1" vertex="1">
          <mxGeometry x="710" y="300" width="100" height="60" as="geometry" />
        </mxCell>
        <mxCell id="LK9-OLBdX8FcBac2PXQw-8" value="api xxx&lt;br&gt;" style="strokeWidth=2;html=1;shape=mxgraph.flowchart.start_1;whiteSpace=wrap;" parent="1" vertex="1">
          <mxGeometry x="710" y="160" width="100" height="60" as="geometry" />
        </mxCell>
        <mxCell id="LK9-OLBdX8FcBac2PXQw-9" value="" style="endArrow=classic;html=1;rounded=0;" parent="1" source="LK9-OLBdX8FcBac2PXQw-10" edge="1">
          <mxGeometry width="50" height="50" relative="1" as="geometry">
            <mxPoint x="260" y="210" as="sourcePoint" />
            <mxPoint x="130" y="110" as="targetPoint" />
          </mxGeometry>
        </mxCell>
        <mxCell id="LK9-OLBdX8FcBac2PXQw-11" value="reverse proxy" style="text;html=1;align=center;verticalAlign=middle;resizable=0;points=[];autosize=1;strokeColor=none;fillColor=none;" parent="1" vertex="1">
          <mxGeometry x="300" y="190" width="100" height="30" as="geometry" />
        </mxCell>
        <mxCell id="LK9-OLBdX8FcBac2PXQw-12" value="" style="endArrow=classic;html=1;rounded=0;" parent="1" target="LK9-OLBdX8FcBac2PXQw-10" edge="1">
          <mxGeometry width="50" height="50" relative="1" as="geometry">
            <mxPoint x="260" y="210" as="sourcePoint" />
            <mxPoint x="130" y="110" as="targetPoint" />
          </mxGeometry>
        </mxCell>
        <mxCell id="LK9-OLBdX8FcBac2PXQw-10" value="demande et renouvellement&amp;nbsp;&lt;br&gt;&amp;nbsp;de certificat automatique&amp;nbsp;" style="text;html=1;align=center;verticalAlign=middle;resizable=0;points=[];autosize=1;strokeColor=none;fillColor=none;" parent="1" vertex="1">
          <mxGeometry x="110" y="140" width="180" height="40" as="geometry" />
        </mxCell>
        <mxCell id="LK9-OLBdX8FcBac2PXQw-13" value="" style="shape=actor;whiteSpace=wrap;html=1;" parent="1" vertex="1">
          <mxGeometry x="30" y="490" width="50" height="70" as="geometry" />
        </mxCell>
        <mxCell id="LK9-OLBdX8FcBac2PXQw-15" value="https://client.fr" style="text;html=1;align=center;verticalAlign=middle;resizable=0;points=[];autosize=1;strokeColor=none;fillColor=none;" parent="1" vertex="1">
          <mxGeometry x="95" y="420" width="100" height="30" as="geometry" />
        </mxCell>
        <mxCell id="LK9-OLBdX8FcBac2PXQw-16" value="https://client.fr" style="text;html=1;align=center;verticalAlign=middle;resizable=0;points=[];autosize=1;strokeColor=none;fillColor=none;" parent="1" vertex="1">
          <mxGeometry x="535" y="310" width="100" height="30" as="geometry" />
        </mxCell>
        <mxCell id="LK9-OLBdX8FcBac2PXQw-19" value="" style="endArrow=classic;html=1;rounded=0;exitX=1;exitY=0.5;exitDx=0;exitDy=0;" parent="1" source="LK9-OLBdX8FcBac2PXQw-5" edge="1">
          <mxGeometry width="50" height="50" relative="1" as="geometry">
            <mxPoint x="280" y="230" as="sourcePoint" />
            <mxPoint x="530" y="325" as="targetPoint" />
          </mxGeometry>
        </mxCell>
        <mxCell id="LK9-OLBdX8FcBac2PXQw-20" value="" style="endArrow=classic;html=1;rounded=0;entryX=0;entryY=0.667;entryDx=0;entryDy=0;entryPerimeter=0;" parent="1" target="LK9-OLBdX8FcBac2PXQw-7" edge="1">
          <mxGeometry width="50" height="50" relative="1" as="geometry">
            <mxPoint x="630" y="330" as="sourcePoint" />
            <mxPoint x="540" y="335" as="targetPoint" />
            <Array as="points">
              <mxPoint x="630" y="330" />
            </Array>
          </mxGeometry>
        </mxCell>
        <mxCell id="LK9-OLBdX8FcBac2PXQw-21" value="" style="endArrow=classic;html=1;rounded=0;" parent="1" edge="1">
          <mxGeometry width="50" height="50" relative="1" as="geometry">
            <mxPoint x="90" y="530" as="sourcePoint" />
            <mxPoint x="130" y="460" as="targetPoint" />
          </mxGeometry>
        </mxCell>
        <mxCell id="LK9-OLBdX8FcBac2PXQw-22" value="" style="endArrow=classic;html=1;rounded=0;exitX=0.536;exitY=0.067;exitDx=0;exitDy=0;exitPerimeter=0;" parent="1" source="LK9-OLBdX8FcBac2PXQw-15" edge="1">
          <mxGeometry width="50" height="50" relative="1" as="geometry">
            <mxPoint x="470" y="345" as="sourcePoint" />
            <mxPoint x="250" y="360" as="targetPoint" />
          </mxGeometry>
        </mxCell>
        <mxCell id="SCTC_J23TWmmP46iyoeh-2" value="(/key + /cert) &amp;gt; certificat gitlab.strateg.in&amp;nbsp;" style="rounded=0;whiteSpace=wrap;html=1;" vertex="1" parent="1">
          <mxGeometry x="270" y="340" width="130" height="60" as="geometry" />
        </mxCell>
        <mxCell id="SCTC_J23TWmmP46iyoeh-4" value="gitlab.strateg.In" style="text;html=1;align=center;verticalAlign=middle;resizable=0;points=[];autosize=1;strokeColor=none;fillColor=none;" vertex="1" parent="1">
          <mxGeometry x="245" y="488" width="110" height="30" as="geometry" />
        </mxCell>
        <mxCell id="SCTC_J23TWmmP46iyoeh-5" value="instance gitlab" style="strokeWidth=2;html=1;shape=mxgraph.flowchart.start_1;whiteSpace=wrap;" vertex="1" parent="1">
          <mxGeometry x="720" y="405" width="100" height="60" as="geometry" />
        </mxCell>
        <mxCell id="SCTC_J23TWmmP46iyoeh-6" value="" style="endArrow=classic;html=1;rounded=0;" edge="1" parent="1">
          <mxGeometry width="50" height="50" relative="1" as="geometry">
            <mxPoint x="280" y="482" as="sourcePoint" />
            <mxPoint x="320" y="430" as="targetPoint" />
          </mxGeometry>
        </mxCell>
        <mxCell id="SCTC_J23TWmmP46iyoeh-7" value="" style="endArrow=classic;html=1;rounded=0;exitX=1;exitY=0.5;exitDx=0;exitDy=0;" edge="1" parent="1">
          <mxGeometry width="50" height="50" relative="1" as="geometry">
            <mxPoint x="455" y="390" as="sourcePoint" />
            <mxPoint x="535" y="390" as="targetPoint" />
          </mxGeometry>
        </mxCell>
        <mxCell id="SCTC_J23TWmmP46iyoeh-8" value="https://gitlab.strateg.in" style="text;html=1;align=center;verticalAlign=middle;resizable=0;points=[];autosize=1;strokeColor=none;fillColor=none;" vertex="1" parent="1">
          <mxGeometry x="510" y="390" width="140" height="30" as="geometry" />
        </mxCell>
        <mxCell id="SCTC_J23TWmmP46iyoeh-9" value="" style="endArrow=classic;html=1;rounded=0;entryX=-0.03;entryY=0.667;entryDx=0;entryDy=0;entryPerimeter=0;" edge="1" parent="1" source="SCTC_J23TWmmP46iyoeh-8" target="SCTC_J23TWmmP46iyoeh-5">
          <mxGeometry width="50" height="50" relative="1" as="geometry">
            <mxPoint x="700" y="430" as="sourcePoint" />
            <mxPoint x="545" y="400" as="targetPoint" />
            <Array as="points">
              <mxPoint x="660" y="430" />
            </Array>
          </mxGeometry>
        </mxCell>
        <mxCell id="SCTC_J23TWmmP46iyoeh-10" value="" style="endArrow=classic;html=1;rounded=0;entryX=-0.018;entryY=0.7;entryDx=0;entryDy=0;entryPerimeter=0;" edge="1" parent="1" target="SCTC_J23TWmmP46iyoeh-4">
          <mxGeometry width="50" height="50" relative="1" as="geometry">
            <mxPoint x="100" y="540" as="sourcePoint" />
            <mxPoint x="140" y="470" as="targetPoint" />
          </mxGeometry>
        </mxCell>
      </root>
    </mxGraphModel>
  </diagram>
</mxfile>
